<svg width="12" height="14" viewBox="0 0 12 14" fill="none" xmlns="http://www.w3.org/2000/svg">
<path d="M11 6.00019H3.40999L6.70999 2.71019C6.89829 2.52188 7.00408 2.26649 7.00408 2.00019C7.00408 1.73388 6.89829 1.47849 6.70999 1.29019C6.52168 1.10188 6.26629 0.996094 5.99999 0.996094C5.73369 0.996094 5.47829 1.10188 5.28999 1.29019L0.289988 6.29019C0.198947 6.38529 0.127582 6.49743 0.0799879 6.62019C-0.0200301 6.86365 -0.0200301 7.13672 0.0799879 7.38019C0.127582 7.50294 0.198947 7.61508 0.289988 7.71019L5.28999 12.7102C5.38295 12.8039 5.49355 12.8783 5.61541 12.9291C5.73727 12.9798 5.86798 13.006 5.99999 13.006C6.132 13.006 6.26271 12.9798 6.38456 12.9291C6.50642 12.8783 6.61702 12.8039 6.70999 12.7102C6.80372 12.6172 6.87811 12.5066 6.92888 12.3848C6.97965 12.2629 7.00579 12.1322 7.00579 12.0002C7.00579 11.8682 6.97965 11.7375 6.92888 11.6156C6.87811 11.4937 6.80372 11.3831 6.70999 11.2902L3.40999 8.00019H11C11.2652 8.00019 11.5196 7.89483 11.7071 7.70729C11.8946 7.51976 12 7.2654 12 7.00019C12 6.73497 11.8946 6.48062 11.7071 6.29308C11.5196 6.10554 11.2652 6.00019 11 6.00019Z" fill="#424242"/>
</svg>
