<svg width="21" height="21" viewBox="0 0 21 21" fill="none" xmlns="http://www.w3.org/2000/svg">
<path d="M18.9 11.6594C18.7397 11.4769 18.6513 11.2423 18.6513 10.9994C18.6513 10.7565 18.7397 10.5219 18.9 10.3394L20.18 8.89941C20.3211 8.74208 20.4087 8.54411 20.4302 8.33391C20.4518 8.12372 20.4062 7.91209 20.3 7.72941L18.3 4.26941C18.1949 4.08693 18.0349 3.94228 17.8428 3.85609C17.6506 3.7699 17.4362 3.74656 17.23 3.78941L15.35 4.16941C15.1108 4.21884 14.8618 4.179 14.6499 4.05741C14.438 3.93582 14.278 3.74089 14.2 3.50941L13.59 1.67941C13.5229 1.48079 13.3951 1.30827 13.2246 1.18625C13.0542 1.06423 12.8497 0.998866 12.64 0.999407H8.64002C8.42195 0.988025 8.20615 1.04833 8.02558 1.17112C7.84501 1.29391 7.7096 1.47243 7.64002 1.67941L7.08002 3.50941C7.00202 3.74089 6.84199 3.93582 6.63013 4.05741C6.41827 4.179 6.16924 4.21884 5.93002 4.16941L4.00002 3.78941C3.80457 3.76179 3.60532 3.79263 3.42737 3.87805C3.24941 3.96346 3.10072 4.09964 3.00002 4.26941L1.00002 7.72941C0.891178 7.91006 0.84224 8.12049 0.860201 8.33063C0.878161 8.54077 0.962101 8.73985 1.10002 8.89941L2.37002 10.3394C2.53034 10.5219 2.61875 10.7565 2.61875 10.9994C2.61875 11.2423 2.53034 11.4769 2.37002 11.6594L1.10002 13.0994C0.962101 13.259 0.878161 13.458 0.860201 13.6682C0.84224 13.8783 0.891178 14.0888 1.00002 14.2694L3.00002 17.7294C3.10512 17.9119 3.26514 18.0565 3.45727 18.1427C3.6494 18.2289 3.86384 18.2522 4.07002 18.2094L5.95002 17.8294C6.18924 17.78 6.43827 17.8198 6.65013 17.9414C6.86199 18.063 7.02202 18.2579 7.10002 18.4894L7.71002 20.3194C7.7796 20.5264 7.91501 20.7049 8.09558 20.8277C8.27615 20.9505 8.49195 21.0108 8.71002 20.9994H12.71C12.9197 20.9999 13.1242 20.9346 13.2946 20.8126C13.4651 20.6905 13.5929 20.518 13.66 20.3194L14.27 18.4894C14.348 18.2579 14.508 18.063 14.7199 17.9414C14.9318 17.8198 15.1808 17.78 15.42 17.8294L17.3 18.2094C17.5062 18.2522 17.7206 18.2289 17.9128 18.1427C18.1049 18.0565 18.2649 17.9119 18.37 17.7294L20.37 14.2694C20.4762 14.0867 20.5218 13.8751 20.5002 13.6649C20.4787 13.4547 20.3911 13.2567 20.25 13.0994L18.9 11.6594ZM17.41 12.9994L18.21 13.8994L16.93 16.1194L15.75 15.8794C15.0298 15.7322 14.2806 15.8545 13.6446 16.2232C13.0086 16.5919 12.5302 17.1812 12.3 17.8794L11.92 18.9994H9.36002L9.00002 17.8594C8.76987 17.1612 8.2914 16.5719 7.65542 16.2032C7.01945 15.8345 6.27024 15.7122 5.55002 15.8594L4.37002 16.0994L3.07002 13.8894L3.87002 12.9894C4.36197 12.4394 4.63395 11.7273 4.63395 10.9894C4.63395 10.2515 4.36197 9.53943 3.87002 8.98941L3.07002 8.08941L4.35002 5.88941L5.53002 6.12941C6.25024 6.27663 6.99945 6.15429 7.63542 5.78561C8.2714 5.41692 8.74987 4.82757 8.98002 4.12941L9.36002 2.99941H11.92L12.3 4.13941C12.5302 4.83757 13.0086 5.42692 13.6446 5.79561C14.2806 6.16429 15.0298 6.28663 15.75 6.13941L16.93 5.89941L18.21 8.11941L17.41 9.01941C16.9236 9.56817 16.655 10.2761 16.655 11.0094C16.655 11.7427 16.9236 12.4506 17.41 12.9994ZM10.64 6.99941C9.84889 6.99941 9.07553 7.234 8.41774 7.67353C7.75994 8.11305 7.24725 8.73777 6.9445 9.46867C6.64175 10.1996 6.56254 11.0038 6.71688 11.7798C6.87122 12.5557 7.25218 13.2684 7.81159 13.8278C8.371 14.3872 9.08373 14.7682 9.85966 14.9225C10.6356 15.0769 11.4398 14.9977 12.1708 14.6949C12.9017 14.3922 13.5264 13.8795 13.9659 13.2217C14.4054 12.5639 14.64 11.7905 14.64 10.9994C14.64 9.93854 14.2186 8.92112 13.4684 8.17098C12.7183 7.42083 11.7009 6.99941 10.64 6.99941ZM10.64 12.9994C10.2445 12.9994 9.85778 12.8821 9.52888 12.6623C9.19998 12.4426 8.94363 12.1302 8.79226 11.7648C8.64088 11.3993 8.60128 10.9972 8.67845 10.6092C8.75562 10.2213 8.9461 9.8649 9.2258 9.58519C9.50551 9.30549 9.86188 9.11501 10.2498 9.03784C10.6378 8.96067 11.0399 9.00027 11.4054 9.15165C11.7708 9.30302 12.0832 9.55937 12.303 9.88827C12.5227 10.2172 12.64 10.6038 12.64 10.9994C12.64 11.5298 12.4293 12.0385 12.0542 12.4136C11.6792 12.7887 11.1705 12.9994 10.64 12.9994Z" fill="#424242"/>
</svg>
