<svg width="15" height="18" viewBox="0 0 15 18" fill="none" xmlns="http://www.w3.org/2000/svg">
<path d="M4.76043 10.4293L4.76045 10.4294L4.76333 10.4264C4.79432 10.3952 4.83119 10.3704 4.87181 10.3535C4.91243 10.3366 4.956 10.3279 5 10.3279C5.044 10.3279 5.08757 10.3366 5.12819 10.3535C5.16881 10.3704 5.20568 10.3952 5.23667 10.4264L5.23675 10.4265L6.31175 11.5099L7.16667 12.3714V11.1577V1.49935C7.16667 1.41094 7.20179 1.32616 7.2643 1.26365C7.32681 1.20113 7.41159 1.16602 7.5 1.16602C7.58841 1.16602 7.67319 1.20113 7.7357 1.26365C7.79821 1.32616 7.83333 1.41094 7.83333 1.49935V11.1577V12.3714L8.68825 11.5099L9.76189 10.4279C9.76208 10.4277 9.76227 10.4275 9.76246 10.4273C9.82555 10.3645 9.91096 10.3293 10 10.3293C10.0893 10.3293 10.175 10.3648 10.2381 10.4279C10.3013 10.4911 10.3367 10.5767 10.3367 10.666C10.3367 10.7553 10.3013 10.841 10.2381 10.9041L7.73811 13.4041L7.73667 13.4056C7.70568 13.4368 7.66881 13.4616 7.62819 13.4785C7.58757 13.4955 7.54401 13.5042 7.5 13.5042C7.45599 13.5042 7.41243 13.4955 7.37181 13.4785C7.33119 13.4616 7.29432 13.4368 7.26334 13.4056L7.26189 13.4041L4.76189 10.9041L4.76043 10.9027C4.72919 10.8717 4.70439 10.8348 4.68747 10.7942C4.67055 10.7536 4.66183 10.71 4.66183 10.666C4.66183 10.622 4.67055 10.5784 4.68747 10.5378C4.70439 10.4972 4.72919 10.4603 4.76043 10.4293ZM10.8333 6.99935H12.5C13.0304 6.99935 13.5391 7.21006 13.9142 7.58513C14.2893 7.96021 14.5 8.46892 14.5 8.99935V14.8327C14.5 15.3631 14.2893 15.8718 13.9142 16.2469C13.5391 16.622 13.0304 16.8327 12.5 16.8327H2.5C1.96957 16.8327 1.46086 16.622 1.08579 16.2469C0.710714 15.8718 0.5 15.3631 0.5 14.8327V8.99935C0.5 8.46892 0.710714 7.96021 1.08579 7.58513C1.46086 7.21006 1.96957 6.99935 2.5 6.99935H4.16667C4.25507 6.99935 4.33986 7.03447 4.40237 7.09698C4.46488 7.15949 4.5 7.24428 4.5 7.33268C4.5 7.42109 4.46488 7.50587 4.40237 7.56838C4.33986 7.6309 4.25507 7.66602 4.16667 7.66602H2.5C2.14638 7.66602 1.80724 7.80649 1.55719 8.05654C1.30714 8.30659 1.16667 8.64573 1.16667 8.99935V14.8327C1.16667 15.1863 1.30714 15.5254 1.55719 15.7755C1.80724 16.0255 2.14638 16.166 2.5 16.166H12.5C12.8536 16.166 13.1928 16.0255 13.4428 15.7755C13.6929 15.5254 13.8333 15.1863 13.8333 14.8327V8.99935C13.8333 8.64573 13.6929 8.30659 13.4428 8.05654C13.1928 7.80649 12.8536 7.66602 12.5 7.66602H10.8333C10.7449 7.66602 10.6601 7.6309 10.5976 7.56838C10.5351 7.50587 10.5 7.42109 10.5 7.33268C10.5 7.24428 10.5351 7.15949 10.5976 7.09698C10.6601 7.03447 10.7449 6.99935 10.8333 6.99935Z" fill="#7560E2" stroke="#7560E2"/>
</svg>
