<svg width="87" height="24" viewBox="0 0 87 24" fill="none" xmlns="http://www.w3.org/2000/svg">
<path d="M0 17.1658L0.629307 12.9826C2.60176 14.3739 4.49908 15.0742 6.09583 15.0742C7.5423 15.0742 8.14343 14.3279 8.14343 13.5262C8.14343 12.8076 7.72076 12.1626 6.06765 11.6466L4.95932 11.2873C1.72825 10.2553 0.432061 8.16373 0.432061 5.71282C0.432061 2.56164 2.93051 0.166016 6.71574 0.166016C8.36885 0.166016 10.1347 0.580643 12.0038 1.42833L11.4027 5.52854C9.53354 4.5795 7.9274 4.06352 6.64999 4.06352C5.43834 4.06352 4.86539 4.70849 4.86539 5.48247C4.86539 6.2288 5.33502 6.8277 6.94117 7.31604L8.02132 7.67539C11.4402 8.76264 12.6989 10.9556 12.6989 13.2498C12.6989 16.143 10.6513 18.9993 6.18036 18.9993C3.73827 18.9993 1.6625 18.1701 0 17.1658Z" fill="#1A1E2C"/>
<path d="M27.3581 6.46218V18.6578H23.2144V17.3468C22.3551 18.3808 21.133 18.9993 19.5289 18.9993C16.1872 18.9993 13.4661 16.2297 13.4661 12.6938C13.4661 9.15794 16.2159 6.41602 19.5289 6.41602C20.9707 6.41602 22.1259 6.93301 22.9757 7.81006V6.46218H27.3581ZM23.0616 12.6938C23.0616 11.1982 21.9159 10.0535 20.4169 10.0535C18.8892 10.0535 17.7435 11.189 17.7435 12.6938C17.7435 14.171 18.8892 15.3065 20.4169 15.3065C21.9063 15.3065 23.0616 14.1617 23.0616 12.6938Z" fill="#1A1E2C"/>
<path d="M28.7216 0.489525L33.4091 0V18.6667H28.7216V0.489525Z" fill="#1A1E2C"/>
<path d="M40.3661 10.2076V13.5274C40.3661 14.5022 40.8355 15.0448 41.8684 15.0448C42.3566 15.0356 42.8355 14.9528 43.2862 14.7873V18.3922C42.4411 18.6865 41.5491 18.8428 40.6571 18.8336C37.3708 18.8336 35.8497 17.0036 35.8497 14.1436V10.2076H34.4319V6.73145H35.8497V4.6991L40.3754 2.58398V6.73145H43.2956V10.2076H40.3661Z" fill="#1A1E2C"/>
<path d="M58.2102 7.0437C58.2102 10.8531 55.1267 13.6337 50.8653 13.6337H49.314V18.6667H44.5738V0.5H50.8749C55.1267 0.509269 58.2102 3.26207 58.2102 7.0437ZM53.4317 7.0437C53.4317 5.48656 52.1485 4.39285 50.3769 4.39285H49.3044V9.75016H50.3769C52.1485 9.75016 53.4317 8.62865 53.4317 7.0437Z" fill="#1A1E2C"/>
<path d="M71.8466 6.46218V18.6578H67.7537V17.3468C66.9049 18.3808 65.6978 18.9993 64.1134 18.9993C60.8127 18.9993 58.125 16.2297 58.125 12.6938C58.125 9.15794 60.841 6.41602 64.1134 6.41602C65.5375 6.41602 66.6786 6.93301 67.5179 7.81006V6.46218H71.8466ZM67.5933 12.6938C67.5933 11.1982 66.4617 10.0535 64.981 10.0535C63.4721 10.0535 62.3405 11.189 62.3405 12.6938C62.3405 14.171 63.4721 15.3065 64.981 15.3065C66.4617 15.3065 67.5933 14.1617 67.5933 12.6938Z" fill="#1A1E2C"/>
<path d="M86.2502 6.41602L79.1969 23.9993H74.4571L77.2784 18.2648L72.6138 6.41602H77.3254L79.432 13.2622L81.5386 6.41602H86.2502Z" fill="#1A1E2C"/>
</svg>
