<svg width="17" height="18" viewBox="0 0 17 18" fill="none" xmlns="http://www.w3.org/2000/svg">
<path d="M9.26669 12.016L8.99543 12.1909L8.83471 12.2028C8.837 12.2338 8.837 12.2649 8.83471 12.2959L8.83358 12.3113L8.83339 12.3266C8.83287 12.3702 8.82381 12.4132 8.80673 12.4533L8.80127 12.4661L8.79653 12.4792C8.78406 12.5137 8.76415 12.545 8.73823 12.5709C8.71231 12.5968 8.68101 12.6167 8.64653 12.6292L8.63033 12.6351L8.61456 12.642C8.57848 12.658 8.53947 12.6662 8.50002 12.6662C8.46058 12.6662 8.42157 12.658 8.38548 12.642L8.36972 12.6351L8.35351 12.6292C8.31904 12.6167 8.28774 12.5968 8.26182 12.5709C8.23589 12.545 8.21599 12.5137 8.20351 12.4792L8.19878 12.4661L8.19332 12.4533C8.17645 12.4137 8.1674 12.3712 8.16668 12.3282C8.16663 12.2849 8.17504 12.242 8.19143 12.2018C8.20645 12.165 8.22792 12.1313 8.25479 12.1021C8.29107 12.071 8.33202 12.0458 8.37615 12.0274L8.37717 12.0269C8.43788 12.0014 8.50478 11.9944 8.56944 12.0069C8.62663 12.0179 8.6798 12.0437 8.72375 12.0815L8.78447 12.1574C8.78818 12.1641 8.79131 12.1712 8.79381 12.1784L8.7997 12.1764L8.80126 12.1784L8.80668 12.174L9.26669 12.016ZM8.26432 5.43031C8.32683 5.3678 8.41162 5.33268 8.50002 5.33268C8.58843 5.33268 8.67321 5.3678 8.73573 5.43031C8.79824 5.49283 8.83336 5.57761 8.83336 5.66602V8.99935C8.83336 9.08776 8.79824 9.17254 8.73573 9.23505C8.67321 9.29756 8.58843 9.33268 8.50002 9.33268C8.41162 9.33268 8.32683 9.29756 8.26432 9.23505C8.20181 9.17254 8.16669 9.08776 8.16669 8.99935V5.66602C8.16669 5.57761 8.20181 5.49283 8.26432 5.43031ZM4.14806 2.48617C5.43624 1.62543 6.95074 1.16602 8.50002 1.16602C9.52871 1.16602 10.5473 1.36863 11.4977 1.76229C12.4481 2.15595 13.3116 2.73295 14.039 3.46035C14.7664 4.18774 15.3434 5.05128 15.7371 6.00166C16.1307 6.95205 16.3334 7.97066 16.3334 8.99935C16.3334 10.5486 15.8739 12.0631 15.0132 13.3513C14.1525 14.6395 12.9291 15.6435 11.4977 16.2364C10.0664 16.8293 8.49133 16.9844 6.97182 16.6822C5.4523 16.3799 4.05653 15.6339 2.96102 14.5384C1.86551 13.4428 1.11946 12.0471 0.817206 10.5276C0.514955 9.00804 0.670081 7.43302 1.26297 6.00166C1.85585 4.57031 2.85987 3.34691 4.14806 2.48617ZM4.51844 14.9582C5.69699 15.7457 7.08259 16.166 8.50002 16.166C10.4007 16.166 12.2236 15.411 13.5676 14.0669C14.9116 12.7229 15.6667 10.9001 15.6667 8.99935C15.6667 7.58192 15.2464 6.19632 14.4589 5.01776C13.6714 3.83921 12.5521 2.92064 11.2426 2.37821C9.93305 1.83578 8.49207 1.69386 7.10188 1.97039C5.71168 2.24692 4.4347 2.92947 3.43243 3.93175C2.43015 4.93403 1.74759 6.21101 1.47106 7.6012C1.19454 8.9914 1.33646 10.4324 1.87889 11.7419C2.42132 13.0515 3.33988 14.1707 4.51844 14.9582Z" fill="#7560E2" stroke="#7560E2"/>
</svg>
